<?xml version="1.0" encoding="UTF-8"?>
<svg width="22px" height="22px" viewBox="0 0 22 22" version="1.1" xmlns="http://www.w3.org/2000/svg" xmlns:xlink="http://www.w3.org/1999/xlink">
    <!-- Generator: sketchtool 49.1 (51147) - http://www.bohemiancoding.com/sketch -->
    <title>BDE18A04-C1B6-4BDA-9336-D020F74144C1</title>
    <desc>Created with sketchtool.</desc>
    <defs></defs>
    <g id="Page-1" stroke="none" stroke-width="1" fill="none" fill-rule="evenodd">
        <g id="editorial_article_final_04" transform="translate(-717.000000, -682.000000)" fill="#E25A76">
            <g id="bg" transform="translate(273.000000, 211.500000)">
                <g id="Group-2" transform="translate(281.000000, 30.000000)">
                    <g id="refresh" transform="translate(2.000000, 437.085938)">
                        <path d="M181.86026,4.45333879 C181.486676,4.29853527 181.167839,4.36251233 180.903331,4.64526999 L179.126027,6.40851988 C178.150219,5.48829893 177.036599,4.77469245 175.783068,4.26916874 C174.529327,3.76343528 173.233005,3.51025391 171.893472,3.51025391 C170.470874,3.51025391 169.113301,3.78818706 167.818657,4.3444729 C166.524852,4.89991969 165.408085,5.64729768 164.468986,6.58618734 C163.530726,7.52528677 162.782718,8.64205365 162.227271,9.93585872 C161.670776,11.2305028 161.393052,12.588285 161.393052,14.0106734 C161.393052,15.4322229 161.670776,16.790005 162.227271,18.0846491 C162.783557,19.3792932 163.530726,20.495221 164.468986,21.4343205 C165.408085,22.3723711 166.524852,23.1205881 167.818657,23.6760349 C169.113301,24.2323208 170.470874,24.5102539 171.893472,24.5102539 C173.460805,24.5102539 174.951366,24.1798805 176.363896,23.5187143 C177.776425,22.858387 178.980243,21.9266292 179.973251,20.7230214 C180.046248,20.6319851 180.080649,20.5296218 180.075614,20.4157217 C180.071629,20.3018215 180.028208,20.2084779 179.946192,20.1354811 L178.073237,18.2484723 C177.972342,18.1664558 177.859281,18.1255525 177.731537,18.1255525 C177.585543,18.1435919 177.480663,18.1985492 177.416895,18.2902148 C176.751534,19.1563174 175.936193,19.8258741 174.969405,20.3001434 C174.003247,20.7737835 172.978145,21.0106035 171.893472,21.0106035 C170.945353,21.0106035 170.040864,20.8262237 169.179586,20.456625 C168.318517,20.0880752 167.572818,19.5890541 166.944374,18.9597715 C166.31593,18.3313279 165.816909,17.585628 165.447311,16.7243498 C165.077712,15.8632815 164.893542,14.9587926 164.893542,14.0106734 C164.893542,13.0625543 165.078551,12.1580654 165.447311,11.2967873 C165.81607,10.4357189 166.315091,9.69001897 166.944374,9.0615754 C167.573657,8.43229278 168.318517,7.93327167 169.179586,7.56472181 C170.040864,7.19512316 170.945353,7.01074335 171.893472,7.01074335 C173.725523,7.01074335 175.31593,7.63499171 176.665532,8.88390794 L174.777684,10.7700777 C174.495765,11.0436059 174.431788,11.3582472 174.586592,11.7131626 C174.741605,12.077727 175.010309,12.2604287 175.393752,12.2604287 L181.518559,12.2604287 C181.755379,12.2604287 181.960316,12.1735877 182.133998,12.0007447 C182.306841,11.8279018 182.392843,11.6221264 182.392843,11.3853063 L182.392843,5.26049863 C182.392843,4.8778948 182.216014,4.60919112 181.86026,4.45333879 Z" id="refresh-arrow"></path>
                    </g>
                </g>
            </g>
        </g>
    </g>
</svg>