<svg xmlns="http://www.w3.org/2000/svg" viewBox="0 0 20 20" id="signin" width="100%" height="100%"><path d="M.25 10C.25 4.62 4.61.25 10 .25c5.38 0 9.75 4.37 9.75 9.75s-4.37 9.75-9.75 9.75c-2.29 0-4.39-.79-6.05-2.11a9.81 9.81 0 0 1-1.24-1.17A9.71 9.71 0 0 1 .25 10zM10 18.25c2.14 0 4.1-.82 5.56-2.16-1.05-2.53-3.2-4.34-5.56-4.34-2.36 0-4.51 1.81-5.56 4.34A8.21 8.21 0 0 0 10 18.25zM12.25 8c0-1.24-1.01-2.25-2.25-2.25S7.75 6.76 7.75 8s1.01 2.25 2.25 2.25S12.25 9.24 12.25 8zm-4.77 2.78A3.751 3.751 0 0 1 10 4.25a3.751 3.751 0 0 1 2.52 6.53c1.74.75 3.2 2.23 4.14 4.09 1-1.37 1.59-3.05 1.59-4.87 0-4.56-3.69-8.25-8.25-8.25-4.56 0-8.25 3.69-8.25 8.25 0 1.82.59 3.51 1.59 4.87.94-1.86 2.4-3.34 4.14-4.09z"></path></svg>
